<?xml version="1.0" encoding="UTF-8"?>
<svg id="Layer_1" data-name="Layer 1" xmlns="http://www.w3.org/2000/svg" viewBox="0 0 434.28 311.84">
  <defs>
    <style>
      .cls-1 {
        fill: #fff;
      }

      .cls-1, .cls-2 {
        stroke-width: 0px;
      }

      .cls-2 {
        fill: #69c;
      }
    </style>
  </defs>
  <g>
    <path class="cls-2" d="m236.36,29.13c0,16.08-13.04,29.13-29.13,29.13s-29.13-13.04-29.13-29.13S191.14,0,207.23,0s29.13,13.04,29.13,29.13Z"/>
    <path class="cls-2" d="m65.52,146.37c0,2.61-2.17,4.35-4.35,4.35h-16.95c-2.61,0-4.35-1.74-4.35-4.35,0-2.17,1.74-4.35,4.35-4.35h16.95c2.61,0,4.35,1.74,4.35,4.35Z"/>
    <path class="cls-2" d="m0,102.59c0-2.17,2.17-4.35,4.35-4.35h53.47c2.61,0,4.35,2.17,4.35,4.35,0,2.61-1.74,4.35-4.35,4.35H4.35C1.74,106.94,0,105.2,0,102.59Z"/>
    <path class="cls-2" d="m56.78,123.98c0,2.61-2.17,4.35-4.35,4.35H17.22c-2.61,0-4.35-1.74-4.35-4.35s1.74-4.35,4.35-4.35h35.21c2.61,0,4.35,1.74,4.35,4.35Z"/>
    <path class="cls-2" d="m258.09,103.03c1.74,10-5.22,19.13-14.78,20.43l-51.3,8.26c-9.13,1.3-16.08-3.48-19.13-10.43l-10-22.17-40.86,36.08,21.74,49.12c5.22,11.74-3.48,25.21-16.52,25.21h-4.78l-34.34,39.99c-6.52,7.39-17.82,8.26-25.21,1.74-7.39-6.52-8.26-17.82-1.74-25.21l14.35-16.52h-17.82c-10,0-17.82-7.82-17.82-17.82s7.82-17.82,17.82-17.82h41.73l-21.3-47.82c-3.91-6.09-2.61-21.74,6.96-30.43l39.99-35.21-6.52-3.04c-39.56,11.74-39.12,12.61-43.47,12.61-7.82,0-14.78-5.22-17.39-12.61-3.04-9.13,2.17-19.56,12.17-22.61l45.21-13.48c3.91-1.3,9.13-.87,13.04.87,30.43,15.22,29.13,14.35,30.43,15.22,31.73,35.21,30.43,33.04,31.3,34.34l10,22.61,37.82-6.09c10-1.74,18.69,5.22,20.43,14.78Z"/>
  </g>
  <g>
    <path class="cls-1" d="m150.45,222.73l8.57-44.76c2.22-12.54,3.17-26.83,3.97-33.33h23.33c-.32,5.24-.64,10.48-1.11,15.71h.48c5.71-10.32,14.45-17.46,25.24-17.46,1.59,0,3.02,0,4.6.16l-5.4,26.35c-.95,0-2.22-.16-3.49-.16-16.03,0-21.43,12.7-24.13,26.83l-4.92,26.67h-27.14Z"/>
    <path class="cls-1" d="m289.19,144.63l-9.68,51.43c-2.06,10.48-3.33,19.37-4.44,26.67h-23.81l1.11-11.91h-.32c-8.41,10.16-17.62,13.65-26.67,13.65-13.49,0-19.84-8.1-19.84-21.59,0-4.45.64-9.37,1.59-14.92l8.25-43.33h27.14l-7.78,41.11c-.64,3.17-1.11,7.14-1.11,9.84,0,3.65,1.43,6.98,5.87,6.98,6.98,0,13.18-8.57,16.03-23.33l6.51-34.6h27.14Z"/>
    <path class="cls-1" d="m280.14,222.73l9.68-51.43c2.06-10.48,3.33-19.37,4.44-26.67h23.81l-1.27,12.06h.32c7.46-9.84,16.83-13.81,26.67-13.81,14.29,0,20.16,8.89,20.16,21.27,0,3.49-.63,9.68-1.27,13.33l-8.73,45.24h-26.99l7.94-42.38c.48-2.54.79-5.56.79-8.1,0-4.6-1.43-7.62-5.87-7.62-6.67,0-13.33,8.57-16.35,24.76l-6.35,33.33h-26.98Z"/>
  </g>
  <g>
    <path class="cls-1" d="m182.19,197.39l-15.24,80c-2.06,10.79-3.49,22.7-3.81,32.7h-24.76l.63-11.43h-.32c-6.67,10-16.19,13.17-24.29,13.17-12.54,0-24.6-9.68-24.6-29.84,0-26.99,19.21-51.75,49.37-51.75,2.54,0,6.03.48,9.37,1.59l6.67-34.45h26.99Zm-37.46,55.72c-1.43-1.27-4.45-2.38-7.46-2.38-11.59,0-19.21,14.13-19.21,26.67,0,9.37,4.44,12.7,9.05,12.7,5.08,0,11.27-4.92,14.13-18.73l3.49-18.25Z"/>
    <path class="cls-1" d="m252.04,262.31c0,30.32-20.64,49.53-48.1,49.53-20,0-34.29-12.06-34.29-32.38,0-27.46,19.37-49.21,48.1-49.21,20.95,0,34.29,13.65,34.29,32.07Zm-54.29,16.67c0,7.62,3.49,12.38,10,12.38,11.11,0,16.19-17.62,16.19-28.73,0-6.51-2.7-11.91-9.68-11.91-11.75,0-16.51,18.73-16.51,28.25Z"/>
    <path class="cls-1" d="m278.07,231.99l-.95,28.57c-.16,8.57-.48,16.83-1.11,26.51h.32c3.02-9.68,6.67-17.94,9.84-25.87l11.91-29.21h21.91l.63,28.1c.16,9.37.32,17.3-.16,26.99h.32c2.7-9.68,5.71-18.1,9.05-27.78l10-27.3h27.3l-37.78,78.1h-25.4l-1.11-20.64c-.32-8.57-.32-16.35-.32-26.67h-.32c-4.6,12.38-6.35,18.1-9.37,25.4l-9.37,21.91h-25.56l-7.3-78.1h27.46Z"/>
    <path class="cls-1" d="m350.46,310.09l9.68-51.43c2.06-10.48,3.33-19.37,4.45-26.67h23.81l-1.27,12.06h.32c7.46-9.84,16.83-13.81,26.67-13.81,14.29,0,20.16,8.89,20.16,21.27,0,3.49-.63,9.68-1.27,13.33l-8.73,45.24h-26.99l7.94-42.38c.48-2.54.79-5.56.79-8.1,0-4.6-1.43-7.62-5.87-7.62-6.67,0-13.33,8.57-16.35,24.76l-6.35,33.33h-26.99Z"/>
  </g>
</svg>