<?xml version="1.0" encoding="UTF-8"?>
<svg id="Layer_1" xmlns="http://www.w3.org/2000/svg" version="1.1" viewBox="0 0 468 344">
  <!-- Generator: Adobe Illustrator 29.1.0, SVG Export Plug-In . SVG Version: 2.1.0 Build 142)  -->
  <defs>
    <style>
      .st0 {
        display: none;
        fill: #333;
      }

      .st1 {
        fill: #fff;
      }

      .st2 {
        fill: #90c0f0;
      }
    </style>
  </defs>
  <rect class="st0" width="468" height="344"/>
  <g>
    <path class="st2" d="M251.9,42.1c0,16.1-13,29.1-29.1,29.1s-29.1-13-29.1-29.1,13-29.1,29.1-29.1,29.1,13,29.1,29.1Z"/>
    <path class="st2" d="M81,159.4c0,2.6-2.2,4.3-4.3,4.3h-17c-2.6,0-4.3-1.7-4.3-4.3s1.7-4.3,4.3-4.3h17c2.6,0,4.3,1.7,4.3,4.3Z"/>
    <path class="st2" d="M15.5,115.6c0-2.2,2.2-4.3,4.3-4.3h53.5c2.6,0,4.3,2.2,4.3,4.3s-1.7,4.3-4.3,4.3H19.9c-2.6,0-4.3-1.7-4.3-4.3Z"/>
    <path class="st2" d="M72.3,137c0,2.6-2.2,4.3-4.3,4.3h-35.2c-2.6,0-4.3-1.7-4.3-4.3s1.7-4.3,4.3-4.3h35.2c2.6,0,4.3,1.7,4.3,4.3Z"/>
    <path class="st2" d="M273.6,116c1.7,10-5.2,19.1-14.8,20.4l-51.3,8.3c-9.1,1.3-16.1-3.5-19.1-10.4l-10-22.2-40.9,36.1,21.7,49.1c5.2,11.7-3.5,25.2-16.5,25.2h-4.8l-34.3,40c-6.5,7.4-17.8,8.3-25.2,1.7-7.4-6.5-8.3-17.8-1.7-25.2l14.3-16.5h-17.8c-10,0-17.8-7.8-17.8-17.8s7.8-17.8,17.8-17.8h41.7l-21.3-47.8c-3.9-6.1-2.6-21.7,7-30.4l40-35.2-6.5-3c-39.6,11.7-39.1,12.6-43.5,12.6-7.8,0-14.8-5.2-17.4-12.6-3-9.1,2.2-19.6,12.2-22.6l45.2-13.5c3.9-1.3,9.1-.9,13,.9,30.4,15.2,29.1,14.3,30.4,15.2,31.7,35.2,30.4,33,31.3,34.3l10,22.6,37.8-6.1c10-1.7,18.7,5.2,20.4,14.8Z"/>
  </g>
  <g>
    <path class="st1" d="M166,235.7l8.6-44.8c2.2-12.5,3.2-26.8,4-33.3h23.3c-.3,5.2-.6,10.5-1.1,15.7h.5c5.7-10.3,14.4-17.5,25.2-17.5s3,0,4.6.2l-5.4,26.4c-1,0-2.2-.2-3.5-.2-16,0-21.4,12.7-24.1,26.8l-4.9,26.7h-27.1Z"/>
    <path class="st1" d="M304.7,157.6l-9.7,51.4c-2.1,10.5-3.3,19.4-4.4,26.7h-23.8l1.1-11.9h-.3c-8.4,10.2-17.6,13.7-26.7,13.7-13.5,0-19.8-8.1-19.8-21.6s.6-9.4,1.6-14.9l8.3-43.3h27.1l-7.8,41.1c-.6,3.2-1.1,7.1-1.1,9.8s1.4,7,5.9,7c7,0,13.2-8.6,16-23.3l6.5-34.6h27.1Z"/>
    <path class="st1" d="M295.6,235.7l9.7-51.4c2.1-10.5,3.3-19.4,4.4-26.7h23.8l-1.3,12.1h.3c7.5-9.8,16.8-13.8,26.7-13.8,14.3,0,20.2,8.9,20.2,21.3s-.6,9.7-1.3,13.3l-8.7,45.2h-27l7.9-42.4c.5-2.5.8-5.6.8-8.1,0-4.6-1.4-7.6-5.9-7.6-6.7,0-13.3,8.6-16.4,24.8l-6.3,33.3h-27Z"/>
  </g>
  <g>
    <path class="st1" d="M197.7,210.4l-15.2,80c-2.1,10.8-3.5,22.7-3.8,32.7h-24.8l.6-11.4h-.3c-6.7,10-16.2,13.2-24.3,13.2-12.5,0-24.6-9.7-24.6-29.8s19.2-51.7,49.4-51.7,6,.5,9.4,1.6l6.7-34.4h27ZM160.2,266.1c-1.4-1.3-4.4-2.4-7.5-2.4-11.6,0-19.2,14.1-19.2,26.7s4.4,12.7,9,12.7,11.3-4.9,14.1-18.7l3.5-18.3Z"/>
    <path class="st1" d="M267.5,275.3c0,30.3-20.6,49.5-48.1,49.5s-34.3-12.1-34.3-32.4,19.4-49.2,48.1-49.2,34.3,13.7,34.3,32.1ZM213.3,292c0,7.6,3.5,12.4,10,12.4,11.1,0,16.2-17.6,16.2-28.7s-2.7-11.9-9.7-11.9c-11.7,0-16.5,18.7-16.5,28.3Z"/>
    <path class="st1" d="M293.6,245l-1,28.6c-.2,8.6-.5,16.8-1.1,26.5h.3c3-9.7,6.7-17.9,9.8-25.9l11.9-29.2h21.9l.6,28.1c.2,9.4.3,17.3-.2,27h.3c2.7-9.7,5.7-18.1,9-27.8l10-27.3h27.3l-37.8,78.1h-25.4l-1.1-20.6c-.3-8.6-.3-16.3-.3-26.7h-.3c-4.6,12.4-6.3,18.1-9.4,25.4l-9.4,21.9h-25.6l-7.3-78.1h27.5Z"/>
    <path class="st1" d="M366,323.1l9.7-51.4c2.1-10.5,3.3-19.4,4.4-26.7h23.8l-1.3,12.1h.3c7.5-9.8,16.8-13.8,26.7-13.8,14.3,0,20.2,8.9,20.2,21.3s-.6,9.7-1.3,13.3l-8.7,45.2h-27l7.9-42.4c.5-2.5.8-5.6.8-8.1,0-4.6-1.4-7.6-5.9-7.6-6.7,0-13.3,8.6-16.3,24.8l-6.3,33.3h-27Z"/>
  </g>
</svg>