<?xml version="1.0" encoding="UTF-8"?>
<svg id="Layer_1" xmlns="http://www.w3.org/2000/svg" version="1.1" viewBox="0 0 512 512">
  <!-- Generator: Adobe Illustrator 29.3.1, SVG Export Plug-In . SVG Version: 2.1.0 Build 151)  -->
  <defs>
    <style>
      .st0 {
        fill: #fff;
      }

      .st1 {
        fill: #222;
      }
    </style>
  </defs>
  <rect class="st1" x="-.2" y="0" width="512.6" height="512.1" rx="71.9" ry="71.9"/>
  <g>
    <path class="st0" d="M435,92.8c0,27.4-22.2,49.7-49.7,49.7s-49.7-22.2-49.7-49.7,22.2-49.7,49.7-49.7,49.7,22.2,49.7,49.7Z"/>
    <path class="st0" d="M143.7,292.6c0,4.4-3.7,7.4-7.4,7.4h-28.9c-4.4,0-7.4-3-7.4-7.4s3-7.4,7.4-7.4h28.9c4.4,0,7.4,3,7.4,7.4Z"/>
    <path class="st0" d="M32.1,218c0-3.7,3.7-7.4,7.4-7.4h91.2c4.4,0,7.4,3.7,7.4,7.4s-3,7.4-7.4,7.4H39.5c-4.4,0-7.4-3-7.4-7.4Z"/>
    <path class="st0" d="M128.8,254.5c0,4.4-3.7,7.4-7.4,7.4h-60c-4.4,0-7.4-3-7.4-7.4s3-7.4,7.4-7.4h60c4.4,0,7.4,3,7.4,7.4Z"/>
    <path class="st0" d="M472,218.7c3,17-8.9,32.6-25.2,34.8l-87.4,14.1c-15.6,2.2-27.4-5.9-32.6-17.8l-17-37.8-69.7,61.5,37.1,83.7c8.9,20-5.9,43-28.2,43h-8.2l-58.5,68.2c-11.1,12.6-30.4,14.1-43,3-12.6-11.1-14.1-30.4-3-43l24.5-28.2h-30.4c-17,0-30.4-13.3-30.4-30.4s13.3-30.4,30.4-30.4h71.1l-36.3-81.5c-6.7-10.4-4.4-37.1,11.9-51.9l68.2-60-11.1-5.2c-67.4,20-66.7,21.5-74.1,21.5-13.3,0-25.2-8.9-29.6-21.5-5.2-15.6,3.7-33.3,20.7-38.5l77.1-23c6.7-2.2,15.6-1.5,22.2,1.5,51.9,25.9,49.7,24.5,51.9,25.9,54.1,60,51.9,56.3,53.4,58.5l17,38.5,64.5-10.4c17-3,31.9,8.9,34.8,25.2Z"/>
  </g>
</svg>